<svg width="80" height="79" viewBox="0 0 80 79" fill="none" xmlns="http://www.w3.org/2000/svg">
<path fill-rule="evenodd" clip-rule="evenodd" d="M61.306 -0.342981C61.2135 -0.231276 60.915 0.423308 60.6426 1.11169C59.3734 4.32078 57.8647 6.50121 55.357 8.75049C53.0431 10.8261 50.3935 12.4413 47.4181 13.5901C44.4858 14.7223 44.0374 14.83 31.6197 17.384C28.0057 18.1273 24.4362 18.9389 23.6872 19.1877C17.134 21.3647 12.4515 26.7868 11.1361 33.7211C10.8257 35.3577 10.8196 38.2925 11.1233 40.0335C11.3972 41.6044 12.1419 43.9073 12.8038 45.2304C13.7011 47.024 14.7422 48.3837 18.6139 52.8179C22.747 57.5518 23.941 58.9936 25.3614 60.9664C27.4865 63.9178 28.5988 66.2622 28.9202 68.4668C29.5081 72.5014 26.7687 75.8189 22.484 76.2608C21.7814 76.3332 21.4323 76.4454 21.3114 76.6376C20.8187 77.4208 22.2545 77.7702 24.0627 77.3069C28.2247 76.2407 30.711 72.7696 30.2821 68.6241C30.0607 66.4834 29.1941 64.328 27.5156 61.7427C25.8455 59.1707 24.4833 57.4824 19.1784 51.4102C15.0143 46.6439 14.435 45.8227 13.3843 43.1986C12.3412 40.594 11.9542 36.8278 12.4432 34.0443C13.4124 28.5277 16.9615 23.7735 21.9198 21.3497L23.1714 20.738L23.2611 32.3584C23.3462 43.3696 23.3678 44.0527 23.6744 45.3869C24.4739 48.8646 25.6681 51.3499 27.8242 54.023C28.6273 55.0187 40.8518 66.5925 42.4296 67.851C44.0163 69.1167 45.6315 69.5583 48.6727 69.5583C51.8373 69.5583 53.197 69.1683 55.0089 67.741C55.4821 67.368 57.4886 65.5551 59.4677 63.712L63.066 60.361L63.1031 61.4004C63.321 67.513 64.0357 70.8884 65.8965 74.5935C66.7517 76.2961 67.9238 78.1458 68.2195 78.2592C68.5508 78.3864 69.0893 78.0358 69.0893 77.6931C69.0893 77.5267 68.7814 76.9132 68.405 76.3296C67.3501 74.6944 66.4633 72.8209 65.8004 70.8274C64.9018 68.1252 64.6876 66.6922 64.5739 62.6173L64.4741 59.0401L66.7107 56.9225C69.2356 54.532 70.621 52.7973 71.7418 50.6223C73.03 48.1225 73.6428 46.1018 73.9327 43.3982C74.0269 42.5206 74.0974 37.8301 74.0998 32.2903L74.1037 22.7017L74.6644 23.5622C76.1028 25.7701 77.5371 29.3489 78.1839 32.3442C78.6426 34.4692 78.7568 38.8559 78.414 41.1853C78.0911 43.3796 77.4214 45.7791 76.592 47.7123C76.2383 48.5373 75.9719 49.3297 76 49.473C76.08 49.8795 76.546 50.1118 76.8727 49.9079C77.2356 49.6816 78.3624 47.1363 78.8502 45.4412C81.4793 36.3026 79.552 26.9809 73.5564 19.8371C71.9608 17.9358 70.9131 17.045 64.2133 11.8931C61.13 9.52209 58.6072 7.55224 58.6072 7.51547C58.6072 7.47886 58.932 7.00858 59.3291 6.47055C60.0744 5.46035 61.648 2.36187 62.1508 0.91456C62.3665 0.293299 62.3947 0.0248316 62.2659 -0.180586C62.0518 -0.522272 61.5278 -0.610979 61.306 -0.342981ZM50.9609 2.72437C50.5199 3.39616 50.159 4.05638 50.159 4.19155C50.159 4.87179 51.1461 4.93828 51.5582 4.28557C52.2643 3.16759 52.8186 2.21074 52.8186 2.10983C52.8186 1.88971 52.3255 1.50281 52.0449 1.50281C51.8658 1.50281 51.4705 1.94838 50.9609 2.72437ZM15.2407 3.49754C13.9412 5.01228 12.3146 8.20776 11.4879 10.8704C10.5859 13.7761 10.267 17.9291 10.7126 20.9671C10.9188 22.3732 11.0852 22.659 11.6589 22.5923C12.049 22.547 12.0621 22.5113 12.0247 21.6066C11.8858 18.2463 11.9266 14.9349 12.1192 13.9405C12.7511 10.6772 13.9275 7.76548 15.6478 5.20628C16.0428 4.61866 16.3659 4.0168 16.3659 3.86864C16.3659 3.25285 15.6526 3.01755 15.2407 3.49754ZM47.734 6.44677C45.8233 8.09074 42.9185 9.54228 40.2355 10.1936C38.4248 10.6332 38.0548 10.9663 38.6812 11.5927C38.8768 11.7883 39.0892 11.8236 39.5808 11.742C42.0589 11.3306 45.7784 9.68965 47.7983 8.11639C49.1566 7.05848 49.3695 6.78173 49.1254 6.39185C48.861 5.9696 48.2611 5.99322 47.734 6.44677ZM60.3774 10.6061C67.8354 16.3291 69.9938 18.063 71.282 19.366L72.6877 20.7879L72.6875 31.9921C72.6872 43.6348 72.6609 44.1921 72.0049 46.482C71.4024 48.5849 70.2395 50.8936 68.868 52.7101C67.8105 54.1106 55.1703 66.0563 53.6471 67.0945C52.2543 68.044 51.4057 68.2301 48.5162 68.2186C45.7856 68.208 45.0127 68.0298 43.6128 67.0888C42.836 66.5665 30.6003 55.1596 29.3269 53.7704C27.1718 51.4196 25.7228 48.5547 24.9284 45.074C24.6231 43.7366 24.6037 43.0788 24.5427 31.9804L24.4786 20.2949L25.0765 20.135C25.4055 20.0471 29.3003 19.2292 33.7318 18.3175C38.1632 17.4059 42.4929 16.485 43.3534 16.2712C48.4288 15.0096 52.8507 12.7722 56.2605 9.7405C56.9919 9.09029 57.6125 8.55477 57.6396 8.5507C57.6668 8.54648 58.8988 9.4714 60.3774 10.6061ZM15.1485 17.3413C14.8913 17.6511 14.177 19.6932 13.7699 21.2824C13.3771 22.8159 13.4462 23.2493 14.0838 23.2493C14.5947 23.2493 14.7562 22.9966 15.0403 21.7522C15.1764 21.1558 15.5128 20.018 15.7878 19.2238C16.1786 18.0947 16.2501 17.7193 16.1152 17.5029C15.8983 17.1543 15.376 17.067 15.1485 17.3413ZM31.3068 21.9099C28.5129 22.3259 27.1609 22.7566 27.1609 23.2305C27.1609 23.294 27.2593 23.4805 27.3796 23.6449C27.5839 23.9245 27.6683 23.9311 28.6703 23.7457C33.6413 22.8258 36.6444 22.884 38.9916 23.9461C39.9046 24.3591 40.9979 25.287 41.3313 25.9316C41.5948 26.4412 42.0555 26.7292 42.3973 26.5979C43.5045 26.1732 41.7615 23.7692 39.6199 22.7669C39.0769 22.5127 38.1458 22.1992 37.551 22.07C36.013 21.7358 32.9958 21.6585 31.3068 21.9099ZM60.5269 21.9155C57.8256 22.3347 55.6323 23.6467 54.7187 25.3901C54.4527 25.8975 54.501 26.3467 54.8412 26.5286C55.2805 26.7638 55.5349 26.6075 56.0787 25.7683C56.8891 24.5176 58.2278 23.772 60.4779 23.3183C62.1173 22.9875 65.4107 23.0751 67.2902 23.4993C67.9785 23.6546 68.8586 23.7851 69.2458 23.7893C69.8888 23.7962 69.9539 23.7618 69.9969 23.3923C70.0598 22.8506 69.8312 22.6937 68.5403 22.3929C65.6002 21.7076 62.9028 21.547 60.5269 21.9155ZM28.3901 31.602C26.9897 32.1023 26.4306 32.6808 26.8542 33.1913C27.1113 33.5011 27.4581 33.477 28.3366 33.0884C29.2115 32.7015 30.6237 32.727 31.2139 33.1402L31.5765 33.3942L30.9529 33.7125C30.3115 34.0396 29.5058 34.865 29.51 35.1906C29.5114 35.2915 29.5641 35.4497 29.6273 35.542C29.9033 35.9448 30.2788 35.8776 31.069 35.2838C31.7591 34.7654 32.0042 34.6701 32.649 34.6701C33.0689 34.6701 33.9436 34.8484 34.5929 35.0664C36.8934 35.8386 39.1872 35.7466 41.2665 34.7987C42.3157 34.3206 42.5771 33.9992 42.3083 33.5189C42.1184 33.1797 41.5217 33.1935 40.8048 33.5537C39.8064 34.0554 38.6432 34.2469 37.115 34.1613C35.3552 34.0627 34.2822 33.6768 32.8422 32.6245C31.258 31.4668 29.7426 31.1188 28.3901 31.602ZM66.195 31.6608C65.7648 31.8175 64.944 32.2697 64.3711 32.6655C62.8856 33.692 61.7835 34.0776 60.0935 34.1623C58.6592 34.2342 57.8525 34.0904 56.2372 33.4748C55.6275 33.2425 55.4692 33.2312 55.2594 33.4055C54.5927 33.9587 55.247 34.6458 56.9504 35.1817C57.8328 35.4592 58.4115 35.5281 59.7806 35.5182C61.2825 35.5074 61.6891 35.4425 62.9756 35.0077C64.7383 34.4119 65.1684 34.4512 66.3152 35.3129C67.0381 35.8561 67.1519 35.8959 67.4396 35.7053C67.6156 35.5886 67.7805 35.3877 67.8061 35.259C67.8745 34.9151 67.1093 34.0781 66.3925 33.7125L65.7688 33.3942L66.1315 33.1402C66.7216 32.727 68.1339 32.7015 69.0088 33.0884C69.9398 33.5003 70.284 33.5042 70.4974 33.1056C70.7514 32.6308 70.4639 32.2584 69.534 31.8584C68.4107 31.3749 67.1792 31.3022 66.195 31.6608ZM45.4968 46.2786C45.136 46.6394 45.2901 47.1305 45.8957 47.5487C47.7146 48.8048 49.7608 48.7851 51.5739 47.4941C52.0595 47.1483 52.1809 46.6109 51.8486 46.2786C51.5601 45.9901 51.3242 46.048 50.5419 46.5994C49.8903 47.0587 49.712 47.1078 48.699 47.1078C47.6883 47.1078 47.5053 47.0576 46.8454 46.5994C46.0545 46.0502 45.7884 45.987 45.4968 46.2786ZM0.102182 50.6977C-0.353711 51.247 0.783676 53.9636 2.16904 55.6343C3.78531 57.5837 5.19883 58.4684 10.0561 60.5712C16.5564 63.3851 18.9703 64.7858 20.9337 66.8827C22.435 68.486 22.9734 69.6353 23.0633 71.4287C23.1001 72.164 23.201 72.8536 23.2874 72.9611C23.5264 73.2588 24.1571 73.1947 24.3393 72.8541C24.5508 72.4587 24.5457 71.1949 24.3284 70.1527C23.9865 68.5138 23.3163 67.4013 21.7016 65.7934C19.3261 63.4275 17.5108 62.3605 11.203 59.6222C6.82231 57.7202 5.77222 57.1702 4.49591 56.108C3.07582 54.9262 2.11631 53.4836 1.44389 51.5191C1.1626 50.6972 1.05058 50.5425 0.707485 50.5026C0.482824 50.4765 0.213731 50.5632 0.102182 50.6977ZM46.0913 51.2001C44.103 51.8623 42.5183 53.0394 41.5173 54.5975L41.0276 55.3599L41.3934 56.0494C41.8759 56.9588 43.4398 58.4038 44.6219 59.0322C47.9385 60.7954 52.0381 60.185 54.681 57.5345C55.2512 56.9627 55.8356 56.2501 55.9793 55.9511C56.2304 55.4289 56.2273 55.3824 55.8986 54.7777C55.37 53.8048 53.9402 52.4837 52.7247 51.8449C51.2765 51.084 50.6208 50.9871 49.5246 51.3725C48.6869 51.6669 48.6354 51.6677 47.8064 51.397C46.9316 51.1114 46.5049 51.0624 46.0913 51.2001ZM47.6016 52.74C47.9106 52.8691 48.3925 52.9747 48.6727 52.9747C48.9529 52.9747 49.4347 52.8691 49.7437 52.74C50.5365 52.4088 50.9617 52.4449 51.9886 52.9312C52.8981 53.3617 54.696 54.9824 54.696 55.3715C54.696 55.7396 53.5569 56.9211 52.6155 57.5295C50.1328 59.1342 46.7704 59.0316 44.3888 57.2783C43.4798 56.6091 42.6494 55.6898 42.6494 55.3527C42.6494 55.0113 44.3087 53.5093 45.2308 53.0158C46.2803 52.4545 46.7792 52.3964 47.6016 52.74Z" fill="#333333"/>
</svg>
