<svg width="80" height="80" viewBox="0 0 80 80" fill="none" xmlns="http://www.w3.org/2000/svg">
<path fill-rule="evenodd" clip-rule="evenodd" d="M30.2736 0.134897C29.117 0.486851 28.2938 1.21498 27.7878 2.3332C27.2317 3.56223 27.3976 4.42899 28.1718 4.33834C28.5651 4.29224 28.6324 4.19753 28.7988 3.45517C29.02 2.46792 29.7476 1.62617 30.5801 1.39487C30.901 1.30563 33.7769 1.24061 37.4213 1.24014L43.7089 1.23921V2.8802V4.52119H42.5462C40.8903 4.52119 40.897 4.50697 40.897 7.99432V10.7726H39.3194C38.1772 10.7726 37.592 10.8437 37.1989 11.0303C36.1871 11.5107 36.1413 11.6939 36.0544 15.6099L35.9763 19.1338L34.7833 19.2187C33.3777 19.3186 32.567 19.7607 31.8771 20.8038L31.4462 21.4553L31.4035 49.2855C31.3563 80.0131 31.2873 77.8225 32.3375 78.8971C33.433 80.0183 31.5446 79.9287 54.097 79.9287C73.7391 79.9287 74.4302 79.9189 75.1814 79.6291C76.2018 79.2355 77.3269 78.164 77.7855 77.149L78.1538 76.3342V65.5505V54.7668L77.7753 53.9974C77.2925 53.016 76.3699 52.093 75.4434 51.6644C74.7351 51.3368 74.5036 51.3267 66.0473 51.2504L57.3775 51.1723L57.2994 36.2996L57.2213 21.4267L56.75 20.7559C56.0709 19.7893 54.9 19.212 53.6187 19.212H52.6294L52.5821 15.6296C52.5351 12.0554 52.534 12.0465 52.1444 11.6243C51.5214 10.9494 50.9064 10.7726 49.1813 10.7726H47.6142V7.80865C47.6142 4.37147 47.6884 4.52119 45.9843 4.52119H44.9586V2.8802V1.23921H46.7496C48.3603 1.23921 48.5568 1.20873 48.7022 0.936952C48.9114 0.545927 48.9089 0.525141 48.6185 0.234451C48.4007 0.0167454 47.3714 -0.00951046 39.5191 0.0023672C34.6493 0.0097126 30.4889 0.0694135 30.2736 0.134897ZM46.3645 8.35018V10.7726H44.3337H42.303V8.35018V5.92776H44.3337H46.3645V8.35018ZM51.1179 12.4247C51.3254 12.6324 51.3633 13.1761 51.3633 15.9411V19.212H44.3337H37.3041V15.9978C37.3041 14.0812 37.3694 12.6618 37.4658 12.4814C37.6219 12.1899 37.8624 12.1792 44.25 12.1792C50.0621 12.1792 50.9023 12.2092 51.1179 12.4247ZM6.42145 17.486C5.39935 18.1096 5.3667 18.2518 5.28047 22.4694L5.20237 26.2889L4.53409 26.4861C3.5726 26.7698 2.87245 27.3677 2.40662 28.3028L2 29.1194L2.00156 53.1174L2.00312 77.1156L2.37132 77.897C2.81028 78.8282 3.24221 79.2526 4.18698 79.6812C4.87151 79.9916 5.15722 80 15.0438 80C24.9304 80 25.2161 79.9916 25.9006 79.6812C26.8454 79.2526 27.2773 78.8282 27.7163 77.897L28.0844 77.1156L28.086 53.1174L28.0876 29.1194L27.681 28.3028C27.2151 27.3677 26.515 26.7698 25.5535 26.4861L24.8852 26.2889L24.8071 22.4488C24.7345 18.8791 24.7062 18.5778 24.4055 18.168C23.6677 17.1629 23.8376 17.1808 14.9657 17.1811C7.26688 17.1814 6.89931 17.1945 6.42145 17.486ZM8.56095 22.4158V26.2448H7.62367H6.68639V22.6034C6.68639 19.9795 6.73872 18.9096 6.87385 18.7744C6.97695 18.6712 7.39872 18.5868 7.81112 18.5868H8.56095V22.4158ZM12.4663 22.4158V26.2448H11.2166H9.96686V22.4158V18.5868H11.2166H12.4663V22.4158ZM16.2154 22.4158V26.2448H14.9657H13.716V22.4158V18.5868H14.9657H16.2154V22.4158ZM20.1207 22.4158V26.2448H18.871H17.6213V22.4158V18.5868H18.871H20.1207V22.4158ZM23.2137 18.7744C23.3489 18.9096 23.4012 19.9795 23.4012 22.6034V26.2448H22.4639H21.5266V22.4158V18.5868H22.2764C22.6889 18.5868 23.1106 18.6712 23.2137 18.7744ZM55.062 20.8641C55.3046 21.0421 55.6259 21.4289 55.776 21.7236C56.0303 22.2225 56.0492 23.2635 56.0494 36.755L56.0497 51.2504L52.0272 51.2506L48.0047 51.2507L47.066 51.6949C46.0636 52.1694 45.3335 52.8849 44.7643 53.9507L44.4118 54.6106L44.3661 65.2379C44.3325 73.0273 44.3693 76.0432 44.504 76.5312C44.6051 76.8976 44.925 77.5305 45.2148 77.9378L45.742 78.6785L44.6863 78.7266C44.1058 78.753 41.5219 78.753 38.9444 78.7266C34.3884 78.6799 34.2422 78.6686 33.6887 78.3243C32.5228 77.599 32.6106 80.0547 32.6556 49.3992L32.6959 21.8917L33.0194 21.4505C33.1973 21.2078 33.5839 20.8855 33.8785 20.7342C34.3761 20.4787 35.1329 20.462 44.5176 20.4998C54.4582 20.5398 54.6282 20.5456 55.062 20.8641ZM25.5829 27.9252C25.8806 28.0754 26.2672 28.4445 26.442 28.7454C26.7577 29.2889 26.7598 29.4424 26.7598 53.2317C26.7598 77.1662 26.7598 77.1709 26.4377 77.6024C26.2605 77.8398 25.9215 78.179 25.6842 78.3562C25.2606 78.6727 25.0758 78.6792 15.245 78.721C5.50964 78.7622 5.21939 78.7549 4.59142 78.4507C4.23635 78.2788 3.80676 77.908 3.6368 77.6268C3.33234 77.1231 3.32812 76.7674 3.34578 53.1785L3.36358 29.2414L3.69819 28.6999C4.36553 27.6195 3.93829 27.6589 15.0438 27.6551C24.2554 27.6522 25.0841 27.6734 25.5829 27.9252ZM36.7105 30.0269C36.569 30.1685 36.5231 32.429 36.5231 39.2423C36.5231 48.0078 36.5318 48.2748 36.8252 48.4318C37.0211 48.5367 39.6825 48.5936 44.3904 48.5936C50.7849 48.5936 51.6828 48.5642 51.899 48.3481C52.1164 48.1305 52.1444 47.0809 52.1444 39.1585C52.1444 32.4104 52.0983 30.1684 51.9569 30.0269C51.687 29.7569 36.9805 29.7569 36.7105 30.0269ZM50.857 39.1774L50.8975 47.187H44.3351H37.7728V39.1366V31.0862L44.2947 31.127L50.8166 31.1678L50.857 39.1774ZM7.31671 36.5493C7.2108 36.7475 7.15503 39.8727 7.15503 45.6138C7.15503 54.1678 7.16253 54.3836 7.46746 54.6887C7.77098 54.9924 7.98811 55.0013 15.0438 55.0013C22.128 55.0013 22.3155 54.9935 22.6239 54.6849C22.9349 54.3738 22.9393 54.2245 22.8972 45.4583C22.8602 37.7399 22.823 36.5284 22.6201 36.3999C22.4811 36.3121 19.3545 36.2508 14.9321 36.2494C7.72146 36.2471 7.47324 36.2569 7.31671 36.5493ZM21.5266 45.546V53.5947H15.0438H8.56095V45.546V37.4973H15.0438H21.5266V45.546ZM74.7953 52.8264C75.6716 53.2238 76.1378 53.6528 76.5644 54.4543C76.8487 54.9885 76.9054 55.4034 76.9543 57.3065L77.0116 59.5335H61.2975H45.5834L45.585 57.4628C45.5864 55.6102 45.6258 55.3076 45.9591 54.5912C46.3561 53.7385 47.1303 53.0119 47.964 52.7093C48.3397 52.5729 51.8338 52.5223 61.2828 52.516C73.8517 52.5077 74.1056 52.5135 74.7953 52.8264ZM64.262 55.7156C63.9603 56.0176 63.9575 56.1109 64.2381 56.4952C64.4458 56.7796 64.7056 56.801 68.4168 56.8393C72.5213 56.8817 73.0885 56.8092 73.2005 56.2275C73.227 56.0896 73.1347 55.8629 72.9955 55.7235C72.7747 55.5026 72.2134 55.4701 68.6248 55.4701C65.0901 55.4701 64.4729 55.5048 64.262 55.7156ZM5.63086 60.6521C5.48652 60.7965 5.43669 61.8422 5.43669 64.7255V68.6048L5.82253 68.7806C6.1184 68.9155 6.26493 68.9099 6.45004 68.7561C6.65858 68.5829 6.68592 68.0075 6.64999 64.5525L6.60828 60.5494L6.21666 60.5036C6.00124 60.4784 5.73771 60.5452 5.63086 60.6521ZM76.9488 68.4854L76.9041 76.0305L76.5136 76.7854C76.0122 77.7545 75.1225 78.3956 73.9889 78.6044C73.4092 78.7113 68.8339 78.7521 60.7108 78.7228C48.9041 78.6805 48.2889 78.6644 47.7204 78.382C47.3921 78.2188 46.9076 77.8694 46.6436 77.6052C45.6481 76.6092 45.6661 76.7694 45.6155 68.4809L45.5694 60.9401H61.2816H76.9937L76.9488 68.4854ZM49.6059 64.3909C49.356 64.5365 49.3325 64.9216 49.3325 68.8872C49.3325 72.052 49.3832 73.2747 49.52 73.4116C49.6625 73.5542 52.4938 73.5992 61.3086 73.5992C72.6184 73.5992 72.9138 73.5915 73.0715 73.2969C73.1711 73.1103 73.2331 71.4134 73.2331 68.867C73.2331 65.0667 73.2105 64.7189 72.9474 64.4807C72.687 64.2449 71.6551 64.2226 61.2705 64.2268C53.8243 64.2299 49.7846 64.2868 49.6059 64.3909ZM71.8272 68.9899V72.3511L61.2438 72.3109L50.6604 72.2708L50.6182 68.9497L50.576 65.6287H61.2016H71.8272V68.9899ZM5.60602 71.4736C5.48917 71.6145 5.44059 72.2064 5.46965 73.1371C5.50636 74.3114 5.56603 74.6141 5.78817 74.754C5.98702 74.8792 6.13605 74.8792 6.33491 74.754C6.55705 74.6141 6.61672 74.3114 6.65343 73.1371C6.70029 71.6356 6.58063 71.2549 6.06154 71.2549C5.91079 71.2549 5.70569 71.3534 5.60602 71.4736Z" fill="#333333"/>
</svg>
