<svg width="43" height="80" viewBox="0 0 43 80" fill="none" xmlns="http://www.w3.org/2000/svg">
<path d="M14.8362 26.3649C16.7038 23.8522 18.4718 21.4974 18.765 21.1321C19.115 20.6961 19.4225 20.4678 19.6596 20.4678C20.104 20.4678 20.4339 20.8373 20.3333 21.2224C20.2556 21.5197 12.7908 31.552 12.4907 31.7626C12.3977 31.8279 12.1458 31.8631 11.9308 31.8407C11.6323 31.8098 11.5283 31.6979 11.4902 31.3668C11.4494 31.0106 12.0465 30.1177 14.8362 26.3649Z" fill="#333333"/>
<path d="M24.9954 45.9716C29.1835 40.486 32.6872 35.9462 32.7814 35.883C33.2147 35.5924 33.8692 36.0006 33.788 36.5109C33.7583 36.6974 30.2875 41.3567 26.0749 46.8647C18.723 56.4776 18.3971 56.8775 17.9468 56.8332C17.5681 56.796 17.4685 56.7062 17.4293 56.3662C17.3891 56.0186 18.7052 54.2104 24.9954 45.9716Z" fill="#333333"/>
<path d="M28.8282 47.221C28.3198 46.9004 28.5452 46.2854 29.7345 44.748C30.7991 43.3717 30.9321 43.2541 31.3757 43.2974C31.7693 43.3357 31.8673 43.4223 31.907 43.766C31.945 44.0943 31.691 44.5199 30.7581 45.6916C29.4986 47.2738 29.2386 47.4798 28.8282 47.221Z" fill="#333333"/>
<path d="M24.5273 51.5275C25.8683 49.7779 27.0775 48.2585 27.2144 48.151C27.3514 48.0436 27.5538 47.9556 27.6643 47.9556C27.9527 47.9556 28.3914 48.6843 28.2484 48.9257C27.8362 49.6208 23.1232 55.6043 22.9292 55.6789C22.5576 55.8215 22.089 55.4863 22.089 55.078C22.089 54.8412 22.9651 53.5654 24.5273 51.5275Z" fill="#333333"/>
<path d="M16.1211 20.3344C15.6128 20.0138 15.8382 19.3989 17.0274 17.8614C18.0921 16.4851 18.2251 16.3676 18.6687 16.4109C19.0623 16.4492 19.1603 16.5358 19.2 16.8795C19.238 17.2077 18.984 17.6334 18.0511 18.8051C16.7916 20.3872 16.5316 20.5933 16.1211 20.3344Z" fill="#333333"/>
<path fill-rule="evenodd" clip-rule="evenodd" d="M4.06406 0.210204C2.38498 0.742596 1.16045 1.80347 0.437825 3.35172L0 4.28958V40.0064V75.7233L0.437669 76.6612C1.00726 77.8819 2.07001 78.9499 3.26532 79.5023L4.22037 79.9437L21.1697 79.9856C36.236 80.0226 38.2134 79.9998 38.9686 79.7803C40.5703 79.3147 41.8144 78.2304 42.5473 76.6612L42.9853 75.7233V40.0064V4.28958L42.5473 3.35172C41.819 1.79253 40.5847 0.710865 38.995 0.238652C38.2556 0.0191928 36.2624 -0.00769256 21.4251 0.00152974C8.36384 0.00965786 4.55206 0.0554567 4.06406 0.210204ZM39.1557 1.72282C40.0999 2.1497 40.8357 2.87513 41.2835 3.82065L41.6535 4.6022V40.0064V75.4107L41.2835 76.1922C40.8357 77.1377 40.0999 77.8632 39.1557 78.2901C38.4621 78.6036 38.2138 78.6082 21.4926 78.6082C4.77152 78.6082 4.52315 78.6036 3.8296 78.2901C2.88533 77.8632 2.14958 77.1377 1.70175 76.1922L1.33176 75.4107V40.0064V4.6022L1.70175 3.82065C2.14958 2.87513 2.88533 2.1497 3.8296 1.72282C4.52315 1.40926 4.77152 1.40473 21.4926 1.40473C38.2138 1.40473 38.4621 1.40926 39.1557 1.72282ZM13.8996 5.06363C13.784 5.52381 14.0465 5.93084 14.4587 5.93084C14.8376 5.93084 15.118 5.55023 15.0569 5.11881C15.0175 4.84073 14.891 4.74742 14.5031 4.7099C14.0751 4.66848 13.9855 4.721 13.8996 5.06363ZM17.4247 4.91951C17.273 5.10224 17.2677 5.24949 17.4023 5.54475L17.5782 5.93084H21.4926H25.4071L25.583 5.54475C25.7175 5.24949 25.7122 5.10224 25.5606 4.91951C25.2636 4.56172 17.7217 4.56172 17.4247 4.91951ZM4.4861 9.55723C4.21318 9.83015 4.21318 68.307 4.4861 68.5799C4.75823 68.8521 38.227 68.8521 38.4992 68.5799C38.7721 68.307 38.7721 9.83015 38.4992 9.55723C38.227 9.2851 4.75823 9.2851 4.4861 9.55723ZM37.3581 39.0686V67.4389H21.4926H5.62716L5.58699 39.2249C5.56495 23.7072 5.58043 10.9226 5.62154 10.8147C5.68078 10.6589 8.94469 10.6269 21.527 10.6584L37.3581 10.6983V39.0686ZM20.7101 70.4686C19.0651 71.0026 18.2101 72.1321 18.2101 73.7707C18.2101 75.0816 19.0312 76.2891 20.2762 76.8092C22.3702 77.6839 24.7752 76.0595 24.7752 73.7707C24.7752 72.8813 24.4613 72.002 23.947 71.4507C23.2044 70.6546 21.6189 70.1735 20.7101 70.4686ZM22.5571 72.0541C23.6483 72.7193 23.7751 74.1755 22.8246 75.126C22.3697 75.5809 22.2048 75.6451 21.4926 75.6451C20.7805 75.6451 20.6156 75.5809 20.1607 75.126C19.8631 74.8284 19.5975 74.3723 19.5385 74.0572C19.3196 72.8905 20.2905 71.7385 21.4926 71.7385C21.7935 71.7385 22.2726 71.8806 22.5571 72.0541Z" fill="#333333"/>
</svg>
